<svg width="163" height="93" viewBox="0 0 163 93" fill="none" xmlns="http://www.w3.org/2000/svg">
<path d="M3.34961 58.3589C2.99642 58.3589 2.6945 58.2336 2.44385 57.9829C2.1932 57.7323 2.06787 57.4303 2.06787 57.0771V57.0601L2.05078 35.5952V35.5781C2.05078 35.2477 2.17041 34.9515 2.40967 34.6895C2.66032 34.4274 2.93945 34.2964 3.24707 34.2964C3.66862 34.2964 3.99902 34.4217 4.23828 34.6724C4.48893 34.9116 4.61426 35.2135 4.61426 35.5781V35.5952L4.63135 57.0601V57.0771C4.63135 57.4303 4.50602 57.7323 4.25537 57.9829C4.00472 58.2336 3.7028 58.3589 3.34961 58.3589ZM10.0317 40.4487C10.3849 40.4487 10.6698 40.5741 10.8862 40.8247C11.1141 41.0754 11.228 41.3773 11.228 41.7305L11.3135 43.7642C11.7236 43.2629 12.1965 42.7616 12.7319 42.2603C13.2788 41.759 13.8997 41.3431 14.5947 41.0127C15.3011 40.6709 16.0872 40.5 16.9531 40.5C18.4684 40.5 19.6818 40.8874 20.5933 41.6621C21.5161 42.4368 22.1826 43.4565 22.5928 44.7212C23.0143 45.9744 23.2251 47.3302 23.2251 48.7886L23.208 57.0771C23.208 57.4303 23.0827 57.7323 22.832 57.9829C22.5814 58.2336 22.2795 58.3589 21.9263 58.3589C21.5731 58.3589 21.2712 58.2336 21.0205 57.9829C20.7699 57.7209 20.6445 57.4132 20.6445 57.0601L20.6616 48.7886C20.6616 47.7746 20.5591 46.8346 20.354 45.9688C20.1489 45.1029 19.7786 44.4022 19.2432 43.8667C18.7077 43.3312 17.9443 43.0635 16.9531 43.0635C15.096 43.0635 13.6947 43.5591 12.749 44.5503C11.8034 45.5415 11.3306 46.9372 11.3306 48.7373V57.1113C11.3306 57.4645 11.2052 57.7664 10.9546 58.0171C10.7039 58.2677 10.402 58.3931 10.0488 58.3931C9.69564 58.3931 9.39372 58.262 9.14307 58C8.89242 57.7493 8.76709 57.4474 8.76709 57.0942L8.75 41.7476C8.75 41.383 8.86963 41.0754 9.10889 40.8247C9.35954 40.5741 9.66715 40.4487 10.0317 40.4487ZM28.6255 40.4487C28.9787 40.4487 29.2635 40.5741 29.48 40.8247C29.7078 41.0754 29.8218 41.3773 29.8218 41.7305L29.9072 43.7642C30.3174 43.2629 30.7902 42.7616 31.3257 42.2603C31.8726 41.759 32.4935 41.3431 33.1885 41.0127C33.8949 40.6709 34.681 40.5 35.5469 40.5C37.0622 40.5 38.2756 40.8874 39.187 41.6621C40.1099 42.4368 40.7764 43.4565 41.1865 44.7212C41.6081 45.9744 41.8188 47.3302 41.8188 48.7886L41.8018 57.0771C41.8018 57.4303 41.6764 57.7323 41.4258 57.9829C41.1751 58.2336 40.8732 58.3589 40.52 58.3589C40.1668 58.3589 39.8649 58.2336 39.6143 57.9829C39.3636 57.7209 39.2383 57.4132 39.2383 57.0601L39.2554 48.7886C39.2554 47.7746 39.1528 46.8346 38.9478 45.9688C38.7427 45.1029 38.3724 44.4022 37.8369 43.8667C37.3014 43.3312 36.5381 43.0635 35.5469 43.0635C33.6898 43.0635 32.2884 43.5591 31.3428 44.5503C30.3971 45.5415 29.9243 46.9372 29.9243 48.7373V57.1113C29.9243 57.4645 29.799 57.7664 29.5483 58.0171C29.2977 58.2677 28.9958 58.3931 28.6426 58.3931C28.2894 58.3931 27.9875 58.262 27.7368 58C27.4862 57.7493 27.3608 57.4474 27.3608 57.0942L27.3438 41.7476C27.3438 41.383 27.4634 41.0754 27.7026 40.8247C27.9533 40.5741 28.2609 40.4487 28.6255 40.4487ZM54.1235 40.4658C55.3198 40.4658 56.4364 40.7051 57.4731 41.1836C58.5099 41.6621 59.4157 42.3229 60.1904 43.166C60.9766 43.9977 61.5861 44.9491 62.019 46.02C62.4634 47.091 62.6855 48.2246 62.6855 49.4209C62.6855 51.0046 62.3096 52.4743 61.5576 53.8301C60.8057 55.1859 59.786 56.2853 58.4985 57.1284C57.2225 57.9601 55.7869 58.3817 54.1919 58.3931C52.5741 58.3931 51.1157 57.9772 49.8169 57.1455C48.5181 56.3138 47.487 55.2201 46.7236 53.8643C45.9717 52.4971 45.5957 51.016 45.5957 49.4209C45.5957 48.236 45.8122 47.1081 46.2451 46.0371C46.6895 44.9548 47.299 43.9977 48.0737 43.166C48.8485 42.3229 49.7485 41.6621 50.7739 41.1836C51.8107 40.7051 52.9272 40.4658 54.1235 40.4658ZM54.1235 43.0293C53.007 43.0293 51.9987 43.3255 51.0986 43.918C50.1986 44.5104 49.4808 45.2909 48.9453 46.2593C48.4212 47.2163 48.1592 48.2588 48.1592 49.3867C48.1592 50.526 48.4212 51.5856 48.9453 52.5654C49.4694 53.5452 50.1872 54.3371 51.0986 54.9409C52.0101 55.5334 53.0355 55.8296 54.1748 55.8296C55.3027 55.8182 56.311 55.5163 57.1997 54.9238C58.0998 54.32 58.8118 53.5339 59.3359 52.5654C59.86 51.597 60.1221 50.5488 60.1221 49.4209C60.1221 48.293 59.8543 47.2448 59.3188 46.2764C58.7948 45.2965 58.077 44.5104 57.1655 43.918C56.2655 43.3255 55.2515 43.0293 54.1235 43.0293ZM95.3101 49.6431C95.5949 49.6431 95.8626 49.7684 96.1133 50.019C96.3753 50.2697 96.5063 50.5317 96.5063 50.8052C96.5063 51.09 96.4665 51.3122 96.3867 51.4717C95.8398 52.7021 95.0594 53.8415 94.0454 54.8896C93.0428 55.9378 91.8465 56.7809 90.4565 57.4189C89.0666 58.057 87.5114 58.376 85.791 58.376C84.0934 58.376 82.5553 58.0627 81.1768 57.436C79.8096 56.8094 78.6361 55.9435 77.6562 54.8384C76.6878 53.7218 75.9416 52.4344 75.4175 50.9761C74.9048 49.5063 74.6484 47.9284 74.6484 46.2422C74.6484 44.5788 74.9105 43.0293 75.4346 41.5938C75.9587 40.1468 76.7106 38.8822 77.6904 37.7998C78.6702 36.7061 79.8381 35.8516 81.1938 35.2363C82.561 34.6211 84.0763 34.3135 85.7397 34.3135C87.4259 34.3135 88.9583 34.6097 90.3369 35.2021C91.7269 35.7946 92.9289 36.5864 93.9429 37.5776C94.9683 38.5688 95.7658 39.6683 96.3354 40.876C96.4266 41.0583 96.4722 41.252 96.4722 41.457C96.4722 41.7874 96.3525 42.0837 96.1133 42.3457C95.8854 42.5964 95.6462 42.7217 95.3955 42.7217C94.7119 42.7217 94.2562 42.471 94.0283 41.9697C93.3561 40.5456 92.3022 39.3436 90.8667 38.3638C89.4312 37.3726 87.7222 36.877 85.7397 36.877C83.9852 36.877 82.4699 37.2985 81.1938 38.1416C79.9178 38.9847 78.9323 40.1183 78.2373 41.5425C77.5537 42.9552 77.2119 44.5389 77.2119 46.2935C77.2119 48.048 77.5537 49.6488 78.2373 51.0957C78.9209 52.5312 79.9007 53.6763 81.1768 54.5308C82.4642 55.3739 83.9909 55.7954 85.7568 55.7954C87.0785 55.7954 88.2804 55.5505 89.3628 55.0605C90.4565 54.5592 91.4022 53.8984 92.1997 53.0781C93.0086 52.2578 93.6239 51.3748 94.0454 50.4292C94.2733 49.9051 94.6948 49.6431 95.3101 49.6431ZM108.298 40.4829C109.517 40.4829 110.611 40.8361 111.58 41.5425C112.559 42.2489 113.414 42.9951 114.143 43.7812L114.297 41.6279C114.297 41.2975 114.388 41.0184 114.57 40.7905C114.753 40.5513 115.009 40.4316 115.339 40.4316C115.67 40.4316 115.949 40.5513 116.177 40.7905C116.416 41.0184 116.536 41.2975 116.536 41.6279V57.0771C116.536 57.4076 116.416 57.6924 116.177 57.9316C115.949 58.1595 115.67 58.2734 115.339 58.2734C115.009 58.2734 114.724 58.1595 114.485 57.9316C114.257 57.6924 114.143 57.4076 114.143 57.0771V55.1289C113.391 55.9492 112.497 56.6898 111.46 57.3506C110.435 58.0114 109.352 58.3418 108.213 58.3418C107.039 58.3418 105.951 58.1025 104.949 57.624C103.946 57.1341 103.069 56.4733 102.317 55.6416C101.565 54.8099 100.978 53.8643 100.557 52.8047C100.146 51.7337 99.9414 50.6115 99.9414 49.438C99.9414 48.2759 100.146 47.1593 100.557 46.0884C100.978 45.006 101.565 44.049 102.317 43.2173C103.08 42.3742 103.969 41.7077 104.983 41.2178C105.997 40.7279 107.102 40.4829 108.298 40.4829ZM114.229 49.3354C114.229 48.2303 113.961 47.2049 113.425 46.2593C112.901 45.3022 112.189 44.5275 111.289 43.9351C110.4 43.3426 109.409 43.0464 108.315 43.0464C107.21 43.0464 106.219 43.3483 105.342 43.9521C104.465 44.556 103.77 45.3478 103.257 46.3276C102.756 47.2961 102.505 48.3328 102.505 49.438C102.505 50.5317 102.756 51.5628 103.257 52.5312C103.758 53.4997 104.436 54.2858 105.291 54.8896C106.156 55.4821 107.131 55.7783 108.213 55.7783C109.307 55.7783 110.309 55.4764 111.221 54.8726C112.132 54.2573 112.861 53.4598 113.408 52.48C113.955 51.4888 114.229 50.4406 114.229 49.3354ZM130.72 42.1235C130.72 42.4312 130.618 42.716 130.413 42.978C130.208 43.2401 129.985 43.3711 129.746 43.3711C129.393 43.3711 129.057 43.2913 128.738 43.1318C128.43 42.9609 128.054 42.8755 127.61 42.8755C126.493 42.8755 125.616 43.1147 124.978 43.5933C124.34 44.0718 123.884 44.687 123.611 45.439C123.349 46.1795 123.218 46.9657 123.218 47.7974V57.1113C123.218 57.4645 123.11 57.7664 122.893 58.0171C122.688 58.2791 122.369 58.4102 121.936 58.4102C121.514 58.4102 121.195 58.2791 120.979 58.0171C120.763 57.7664 120.654 57.4645 120.654 57.1113V41.9526C120.654 41.5311 120.791 41.1893 121.064 40.9272C121.349 40.6652 121.651 40.5342 121.97 40.5342C122.301 40.5342 122.568 40.6652 122.773 40.9272C122.99 41.1779 123.098 41.5197 123.098 41.9526L123.252 43.8325C123.411 43.3084 123.708 42.79 124.141 42.2773C124.585 41.7646 125.103 41.3374 125.696 40.9956C126.3 40.6424 126.909 40.4658 127.524 40.4658C128.402 40.4658 129.154 40.5854 129.78 40.8247C130.407 41.0526 130.72 41.4855 130.72 42.1235ZM135.608 36.9111C135.608 36.5579 135.733 36.256 135.984 36.0054C136.235 35.7547 136.536 35.6294 136.89 35.6294C137.243 35.6294 137.545 35.7547 137.795 36.0054C138.046 36.256 138.171 36.5579 138.171 36.9111L138.154 40.7393L141.487 40.7563C141.817 40.7563 142.096 40.876 142.324 41.1152C142.563 41.3431 142.683 41.6222 142.683 41.9526C142.683 42.283 142.563 42.5679 142.324 42.8071C142.096 43.035 141.817 43.1489 141.487 43.1489L138.154 43.1318L138.137 53.7959C138.137 54.3997 138.228 54.8896 138.411 55.2656C138.593 55.6302 138.963 55.8125 139.521 55.8125C140.023 55.8125 140.433 55.7214 140.752 55.5391C141.082 55.3454 141.458 55.2485 141.88 55.2485C142.233 55.2485 142.535 55.3739 142.786 55.6245C143.036 55.8752 143.162 56.1771 143.162 56.5303C143.162 57.0088 142.957 57.3848 142.546 57.6582C142.136 57.9316 141.652 58.1196 141.094 58.2222C140.547 58.3361 140.057 58.3931 139.624 58.3931C138.28 58.3931 137.266 57.9658 136.582 57.1113C135.91 56.2454 135.574 55.1289 135.574 53.7617L135.591 43.1489H132.959C132.629 43.1489 132.344 43.035 132.104 42.8071C131.877 42.5679 131.763 42.283 131.763 41.9526C131.763 41.6222 131.877 41.3431 132.104 41.1152C132.344 40.876 132.629 40.7563 132.959 40.7563H135.591L135.608 36.9111Z" fill="white"/>
<circle cx="112.5" cy="46.5" r="45.5" stroke="black" stroke-opacity="0.5" stroke-width="2" stroke-dasharray="5 5"/>
</svg>
